HIERARCHY
ROOT Hips
{
	OFFSET 0.000000 0.000000 0.000000 
	CHANNELS 6 Xposition Yposition Zposition Yrotation Zrotation Xrotation 
	JOINT Lumbar
	{
		OFFSET 0.000000 0.000000 0.000000 
		CHANNELS 3 Zrotation Xrotation Yrotation
		JOINT Neck
		{
			OFFSET 0.000000 0.445665 0.000000 
			CHANNELS 3 Zrotation Xrotation Yrotation
			End Site
			{
				OFFSET 0.000000 0.227535 0.000000 
			}
		}
		JOINT RightShoulder
		{
			OFFSET 0.019635 0.377685 0.194865 
			CHANNELS 3 Zrotation Xrotation Yrotation
			JOINT RightElbow
			{
				OFFSET 0.000000 -0.243375 0.000000 
				CHANNELS 2 Zrotation Yrotation
				JOINT RightWrist
				{
					OFFSET 0.000000 -0.264825 0.000000 
					CHANNELS 2 Zrotation Xrotation
					End Site
					{
						OFFSET 0.006600 -0.176220 0.000990 
					}
				}
			}
		}
		JOINT LeftShoulder
		{
			OFFSET 0.019635 0.377685 -0.194865 
			CHANNELS 3 Zrotation Xrotation Yrotation
			JOINT LeftElbow
			{
				OFFSET 0.000000 -0.243375 0.000000 
				CHANNELS 2 Zrotation Yrotation
				JOINT LeftWrist
				{
					OFFSET 0.000000 -0.264825 0.000000 
					CHANNELS 2 Zrotation Xrotation
					End Site
					{
						OFFSET 0.006600 -0.176220 -0.000990 
					}
				}
			}
		}
	}
	JOINT RightHip
	{
		OFFSET 0.052140 -0.069960 0.075570 
		CHANNELS 3 Zrotation Xrotation Yrotation
		JOINT RightKnee
		{
			OFFSET 0.000000 -0.402270 0.000000 
			CHANNELS 1 Zrotation
			JOINT RightAnkle
			{
				OFFSET 0.000000 -0.404085 0.000000 
				CHANNELS 3 Zrotation Xrotation Yrotation
				End Site
				{
					OFFSET 0.204105 -0.089430 0.008415 
				}
			}
		}
	}
	JOINT LeftHip
	{
		OFFSET 0.052140 -0.069960 -0.075570 
		CHANNELS 3 Zrotation Xrotation Yrotation
		JOINT LeftKnee
		{
			OFFSET 0.000000 -0.402270 0.000000 
			CHANNELS 1 Zrotation
			JOINT LeftAnkle
			{
				OFFSET 0.000000 -0.404085 0.000000 
				CHANNELS 3 Zrotation Xrotation Yrotation
				End Site
				{
					OFFSET 0.204105 -0.089430 -0.008415 
				}
			}
		}
	}
}
MOTION
Frames: 31
Frame Time: 0.02
-0.00012 -1e-05 -0.00022 16.71754 -35.13593 -3.64983 55.98808 2.19237 2.77105 0.05065 -2.63266 -0.62924 116.5615 -73.99188 -87.14644 14.47071 71.27003 5.39272 -6.9167 107.5273 78.23434 87.14305 5.72859 -69.59329 1.79174 6.04756 49.55749 -3.27821 -2.24454 -18.77583 -7.49605 -3.51173 -3.9959 50.3768 6.42554 3.1087 -23.87478 -8.25147 3.88607 4.21783
8e-05 -0 -0.00024 16.7242 -35.10927 -3.64706 56.02014 2.18857 2.77547 0.00291 -2.66058 -0.63022 116.97378 -74.02122 -87.1464 14.42709 71.29368 5.49883 -6.80659 108.59289 78.12801 87.14302 5.82456 -69.52763 1.84133 5.95301 49.509 -3.34121 -2.64249 -18.77487 -7.46965 -3.4799 -3.97716 50.3304 6.49744 3.434 -23.87589 -8.21939 3.86158 4.20251
0.00029 0 -0.00026 16.73083 -35.08265 -3.64429 56.05213 2.18478 2.77997 -0.04479 -2.68839 -0.6312 117.3851 -74.05052 -87.14637 14.3835 71.31729 5.60472 -6.69663 109.65527 78.02204 87.14297 5.92003 -69.46215 1.89074 5.85855 49.46061 -3.40407 -3.03957 -18.77391 -7.44331 -3.44813 -3.95846 50.28409 6.56917 3.75854 -23.877 -8.18739 3.83715 4.18722
0.00049 1e-05 -0.00027 16.73746 -35.05606 -3.64152 56.0841 2.18099 2.7844 -0.0924 -2.71623 -0.63218 117.79625 -74.07977 -87.14633 14.34001 71.34087 5.71054 -6.58681 110.71768 77.91605 87.14303 6.01566 -69.3967 1.94019 5.76426 49.41225 -3.46689 -3.43634 -18.77296 -7.41699 -3.4164 -3.93977 50.23782 6.64085 4.08288 -23.87811 -8.1554 3.81274 4.17195
0.00069 1e-05 -0.00029 16.74414 -35.02943 -3.63875 56.11611 2.17719 2.78872 -0.14001 -2.74416 -0.63316 118.20798 -74.10907 -87.14629 14.29649 71.3645 5.8165 -6.47695 111.78299 77.80971 87.14289 6.1119 -69.33105 1.98979 5.66997 49.36381 -3.52983 -3.83388 -18.77199 -7.39062 -3.38461 -3.92105 50.19148 6.71267 4.40787 -23.87922 -8.12335 3.78827 4.15664
0.00089 1e-05 -0.00031 16.75066 -35.00283 -3.63598 56.14805 2.1734 2.79361 -0.18789 -2.77173 -0.63415 118.61826 -74.13836 -87.14625 14.25274 71.38806 5.92222 -6.36683 112.839 77.70451 87.14288 6.20574 -69.26589 2.03875 5.57514 49.31555 -3.59252 -4.22996 -18.77107 -7.36434 -3.35288 -3.90239 50.14525 6.78421 4.73145 -23.88032 -8.09147 3.76392 4.1414
0.0011 2e-05 -0.00033 16.75748 -34.97621 -3.63321 56.1801 2.16961 2.79735 -0.23519 -2.80001 -0.63511 119.0317 -74.16762 -87.14621 14.20957 71.41172 6.02842 -6.25719 113.91324 77.59711 87.14323 6.30426 -69.1999 2.08907 5.48148 49.26696 -3.65564 -4.62848 -18.77006 -7.33792 -3.32109 -3.88363 50.09884 6.85624 5.05751 -23.88144 -8.05928 3.73936 4.12603
0.0013 2e-05 -0.00034 16.76404 -34.9496 -3.63045 56.21205 2.16581 2.80213 -0.28299 -2.82762 -0.6361 119.44095 -74.19693 -87.14617 14.16577 71.43531 6.13394 -6.14742 114.9694 77.49179 87.14214 6.39856 -69.13453 2.13791 5.38681 49.21867 -3.71837 -5.02484 -18.76913 -7.31162 -3.28935 -3.86496 50.0526 6.92782 5.38129 -23.88255 -8.02737 3.715 4.11079
0.0015 3e-05 -0.00036 16.77023 -34.92303 -3.62768 56.24391 2.16203 2.80829 -0.33159 -2.8545 -0.63711 119.85039 -74.22623 -87.14613 14.12153 71.45872 6.23963 -6.03619 116.00897 77.3888 87.14365 6.48729 -69.07048 2.18584 5.29056 49.17074 -3.78063 -5.41842 -18.76829 -7.28549 -3.25767 -3.84639 50.00654 6.99886 5.70244 -23.88363 -7.99579 3.69085 4.09569
0.00171 3e-05 -0.00038 16.77837 -34.89629 -3.62491 56.27639 2.15825 2.80683 -0.37614 -2.88584 -0.63797 120.27469 -74.25535 -87.14609 14.08081 71.48288 6.34737 -5.92944 117.16059 77.27175 87.14332 6.60682 -69.00051 2.24173 5.20236 49.12074 -3.84561 -5.8276 -18.76691 -7.25842 -3.22562 -3.82724 49.95935 7.07307 6.03921 -23.88481 -7.96226 3.6654 4.07973
0.00189 3e-05 -0.00039 16.78254 -34.86989 -3.62214 56.30748 2.15438 2.82122 -0.42889 -2.90761 -0.63914 120.65739 -74.28503 -87.14606 14.03205 71.50563 6.44884 -5.81577 118.06512 77.18477 87.13851 6.6622 -68.94197 2.27908 5.09786 49.07512 -3.90485 -6.20405 -18.76671 -7.23333 -3.19436 -3.8093 49.91461 7.14053 6.34265 -23.88582 -7.93288 3.64273 4.06559
0.00202 2e-05 -0.00035 16.77454 -34.84446 -3.61942 56.33548 2.15102 2.88141 -0.50727 -2.90406 -0.64122 121.00291 -74.31374 -87.14601 13.96554 71.52482 6.5495 -5.66343 118.36312 77.17716 87.15264 6.53327 -68.9216 2.275 4.94 49.04144 -3.94806 -6.48853 -18.76938 -7.21368 -3.16516 -3.79467 49.87601 7.18963 6.55622 -23.88611 -7.91485 3.62767 4.0564
0.00213 1e-05 -0.00029 16.7628 -34.8193 -3.61672 56.36196 2.14749 2.95714 -0.59336 -2.89063 -0.6436 121.28812 -74.34271 -87.14593 13.88987 71.54363 6.64123 -5.50883 118.39316 77.19999 87.13076 6.34161 -68.90984 2.24753 4.76577 49.01212 -3.98551 -6.7404 -18.7733 -7.19602 -3.13679 -3.78124 49.83995 7.23181 6.73548 -23.88627 -7.90102 3.61546 4.04905
0.00225 -1e-05 -0.00024 16.75361 -34.79406 -3.61396 56.38862 2.14348 3.02422 -0.67382 -2.88127 -0.64579 121.55606 -74.3742 -87.14595 13.81591 71.56098 6.72584 -5.36675 118.50752 77.21134 87.13779 6.18392 -68.8918 2.22843 4.60665 48.98092 -4.0258 -7.00881 -18.77692 -7.17745 -3.10813 -3.76722 49.80311 7.27719 6.93017 -23.88666 -7.88523 3.60194 4.04084
0.00237 -1e-05 -0.00019 16.7408 -34.7689 -3.61133 56.41737 2.1416 3.09787 -0.76309 -2.87415 -0.64816 122.02999 -74.39775 -87.14579 13.75341 71.58069 6.85599 -5.17179 118.80653 77.21413 87.19761 6.00249 -68.89048 2.2312 4.42158 48.9495 -4.06524 -7.27053 -18.77943 -7.15891 -3.0791 -3.75336 49.76477 7.3228 7.12785 -23.88636 -7.86949 3.58834 4.03264
0.00248 -4e-05 -0.00013 16.73467 -34.7433 -3.60853 56.4415 2.1355 3.16169 -0.83608 -2.85941 -0.65026 122.03867 -74.43388 -87.14577 13.66348 71.60109 6.89122 -5.09188 118.62351 77.24031 87.00623 5.85634 -68.84797 2.16738 4.27857 48.91933 -4.10495 -7.53767 -18.78452 -7.14078 -3.05103 -3.73948 49.73004 7.36569 7.3082 -23.88746 -7.85486 3.57577 4.02499
0.00256 -0.00012 1e-05 16.7482 -34.71909 -3.60422 56.45197 2.11559 3.19306 -0.85878 -2.83135 -0.65139 120.96469 -74.53563 -87.14615 13.5113 71.56561 6.65101 -5.27999 117.47135 77.33172 87.31122 5.82123 -68.76937 2.06064 4.32845 48.8935 -4.14833 -7.83523 -18.79675 -7.12303 -3.02531 -3.72506 49.70573 7.40807 7.47506 -23.89251 -7.84043 3.56377 4.01726
0.00262 -0.00022 0.00017 16.7688 -34.69383 -3.59985 56.45782 2.09174 3.21428 -0.86464 -2.79503 -0.65226 119.38975 -74.64177 -87.14531 13.32929 71.53537 6.32003 -5.59072 115.79218 77.43993 87.1762 5.82697 -68.63962 1.86441 4.40991 48.86836 -4.19204 -8.13838 -18.81155 -7.10564 -3.00052 -3.7106 49.68473 7.44698 7.62119 -23.89902 -7.8273 3.55299 4.0102
0.00267 -0.00031 0.00032 16.78565 -34.66744 -3.59627 56.46693 2.07133 3.24112 -0.88151 -2.75896 -0.65335 117.92117 -74.72881 -87.14674 13.1541 71.54865 6.03877 -5.88159 114.15483 77.54042 86.42728 5.81155 -68.474 1.61792 4.42629 48.84169 -4.23441 -8.43353 -18.82488 -7.08825 -2.9754 -3.69629 49.66152 7.48401 7.75936 -23.90478 -7.81482 3.54275 4.00362
0.00278 -0.00041 0.00048 16.80354 -34.64828 -3.58975 56.47211 2.04449 3.26421 -0.88786 -2.73712 -0.65402 116.96203 -74.89834 -87.14652 13.00882 71.39388 5.71501 -6.03175 113.3259 77.65947 88.98134 5.79323 -68.53568 1.74635 4.64687 48.82054 -4.28099 -8.7489 -18.83922 -7.07029 -2.95001 -3.68146 49.64146 7.53534 7.96827 -23.91073 -7.79736 3.52808 3.99391
0.00277 -0.0005 0.00063 16.82236 -34.61325 -3.58896 56.4831 2.0294 3.29256 -0.90778 -2.68407 -0.65551 114.82436 -74.88422 -87.14243 12.79203 71.55809 5.46638 -6.49062 110.7126 77.72199 84.71705 5.8061 -68.13997 1.08318 4.46164 48.78772 -4.31974 -9.02606 -18.8524 -7.05352 -2.92529 -3.66767 49.61549 7.5562 8.02719 -23.91684 -7.79038 3.52274 3.99074
0.00242 -0.00056 0.00074 16.83048 -34.53964 -3.60751 56.52195 2.05365 3.33685 -1.00405 -2.54526 -0.65935 109.5525 -74.46877 -87.15511 12.40583 72.89715 5.36104 -7.88855 103.12458 77.80529 60.29833 5.76996 -66.24894 -1.83383 3.04721 48.72476 -4.32979 -9.17676 -18.85861 -7.04039 -2.90303 -3.6572 49.57343 7.49383 7.66217 -23.92113 -7.81326 3.54405 4.00642
0.00193 -0.00063 0.00085 16.84156 -34.44923 -3.63121 56.56445 2.08865 3.38657 -1.10694 -2.37604 -0.66411 103.11622 -73.84629 -87.13605 11.94607 74.51493 5.33831 -9.57161 93.79692 77.79567 29.2923 5.78725 -63.94352 -5.52841 1.24239 48.64962 -4.33309 -9.29167 -18.86406 -7.0284 -2.88133 -3.64773 49.52515 7.40112 7.15046 -23.92585 -7.84635 3.57438 4.02844
0.00148 -0.00071 0.00096 16.85876 -34.36318 -3.65022 56.59872 2.11494 3.43484 -1.18537 -2.22142 -0.66833 97.21038 -73.2512 -87.1427 11.50486 75.7949 5.35007 -11.04707 85.3781 77.71167 2.25383 5.86275 -61.99023 -8.80681 -0.31765 48.57854 -4.34437 -9.43724 -18.87196 -7.01552 -2.8587 -3.63743 49.47902 7.32207 6.71503 -23.93169 -7.87402 3.59987 4.04698
0.00111 -0.00071 0.00105 16.84431 -34.29069 -3.67901 56.66207 2.15762 3.47981 -1.35826 -2.06177 -0.67266 91.26699 -72.9465 -87.19535 11.12041 77.91301 5.10505 -12.85431 76.42651 78.12675 -28.87633 5.59228 -59.34977 -12.34983 -2.1617 48.51364 -4.33577 -9.52627 -18.87133 -7.00402 -2.83857 -3.62856 49.43577 7.24272 6.23574 -23.93221 -7.90522 3.62883 4.06825
0.00056 -0.00088 0.0012 16.89688 -34.18627 -3.68884 56.6639 2.1683 3.5314 -1.33055 -1.90728 -0.67746 85.1503 -71.9769 -87.02715 10.60692 78.41856 5.35235 -14.03899 68.19719 77.4723 -53.0871 6.05342 -58.03509 -15.52977 -3.50643 48.43307 -4.36591 -9.71943 -18.88791 -6.99014 -2.81384 -3.61718 49.38511 7.15774 5.81641 -23.94369 -7.93121 3.65231 4.08513
-0.00041 -0.00153 0.0015 17.12926 -33.99545 -3.64361 56.51111 2.09235 3.61471 -0.79593 -1.75917 -0.67927 78.68449 -69.31556 -87.2961 9.70734 73.81564 7.50005 -13.41479 62.23054 73.9534 -56.18599 8.53506 -60.55333 -17.46914 -3.38419 48.31164 -4.51374 -10.253 -18.95513 -6.96736 -2.77188 -3.5964 49.31463 7.05684 5.57109 -23.98693 -7.94265 3.66173 4.09004
-0.00155 -0.00235 0.00186 17.4295 -33.77367 -3.57948 56.29342 1.98325 3.70218 -0.05052 -1.62019 -0.68224 72.11658 -65.97605 -87.17371 8.69343 67.68148 10.04898 -12.15834 57.08323 69.34991 -52.1612 11.75029 -64.40898 -19.01939 -2.74484 48.17515 -4.69911 -10.88494 -19.03915 -6.94251 -2.72601 -3.57345 49.23716 6.95278 5.39595 -24.04086 -7.94811 3.66477 4.09002
-0.00262 -0.00308 0.00221 17.70201 -33.56742 -3.52484 56.09473 1.88625 3.7776 0.63059 -1.4871 -0.6874 65.69924 -62.88387 -86.5186 7.75835 62.64428 12.03027 -11.20261 51.66629 65.19822 -51.65866 14.61836 -67.60399 -20.78539 -2.33747 48.04571 -4.86135 -11.44216 -19.11352 -6.91998 -2.68489 -3.55301 49.16331 6.8553 5.20733 -24.08887 -7.95468 3.66853 4.09108
-0.00369 -0.00388 0.00249 17.96277 -33.35382 -3.4662 55.93993 1.8013 3.89442 1.17982 -1.31057 -0.68129 58.79895 -60.03592 -88.76417 6.6911 55.95813 15.58793 -10.19628 45.75326 61.21268 -50.20016 17.5389 -71.00021 -22.4362 -1.95612 47.91426 -5.04894 -12.12245 -19.19632 -6.89173 -2.63157 -3.52634 49.08692 6.73504 4.93768 -24.14147 -7.96813 3.68158 4.0971
-0.00478 -0.00456 0.00292 18.26249 -33.14917 -3.4118 55.6789 1.6843 3.92801 2.05225 -1.22706 -0.69868 52.89834 -56.52788 -84.99861 5.89319 52.29579 16.0231 -9.14659 41.09255 56.6299 -48.93449 20.53314 -74.30963 -24.19692 -1.39315 47.78448 -5.19277 -12.57323 -19.26562 -6.87482 -2.60232 -3.51191 49.0148 6.66186 4.85308 -24.18696 -7.96603 3.67392 4.09171
